<?xml version="1.0" encoding="utf-8"?>
<!-- Generator: Adobe Illustrator 19.0.1, SVG Export Plug-In . SVG Version: 6.00 Build 0)  -->
<svg version="1.1" id="Layer_1" xmlns="http://www.w3.org/2000/svg" xmlns:xlink="http://www.w3.org/1999/xlink" x="0px" y="0px"
	 viewBox="0 0 214.6 57.4" enable-background="new 0 0 214.6 57.4" xml:space="preserve">
<g>
	<g>
		<g>
			<path fill="#3D83E1" d="M27.8,32.7L27.8,32.7C22.2,28.6,18,21.6,21.4,16l0,0c1.5-1.9,3.4-3.4,5.6-4.7c0.2-0.1,0.5-0.2,0.7-0.3
				c0,0-0.1,0-0.1,0C38,5.2,53.2,5.4,53.2,5.4S26.5,2.3,12.1,16c-2.8,2.4-5,5.5-6.2,9c0,0,0,0,0,0l0,0c-1,2.8-1.4,6-1.1,9.2
				c0.7,7.2,4.9,13.2,10.8,16.5c2,1.3,4.4,1.9,6.9,1.6c6-0.6,10.3-5.9,9.8-11.9C31.9,37.2,30.2,34.5,27.8,32.7z"/>
		</g>
		<g>
			<path fill="#3D83E1" d="M37.5,14.5c-0.1,0-10.9,4.5-4.2,11.8c5.7,6.1,8.5,8.7,6.8,16.7c-0.7,3.3-2.7,6.2-6,8.6
				c8.3-3.5,13.7-12.1,12.8-21.6C46.3,23.5,42.7,17.9,37.5,14.5z"/>
		</g>
	</g>
	<g>
		<path fill="#3D83E1" d="M71.4,24.6c-0.5-0.6-1.2-1.1-2-1.4c-0.9-0.3-1.7-0.5-2.4-0.5c-0.4,0-0.9,0.1-1.4,0.2
			c-0.5,0.1-0.9,0.3-1.3,0.5c-0.4,0.2-0.8,0.5-1,0.9c-0.3,0.4-0.4,0.8-0.4,1.3c0,0.8,0.3,1.5,0.9,1.9c0.6,0.4,1.4,0.8,2.4,1.1
			c1,0.3,2,0.6,3.1,0.9c1.1,0.3,2.1,0.8,3.1,1.3c1,0.6,1.7,1.3,2.4,2.3c0.6,1,0.9,2.3,0.9,3.9c0,1.5-0.3,2.9-0.9,4
			c-0.6,1.2-1.4,2.1-2.3,2.9c-1,0.8-2.1,1.3-3.4,1.7c-1.3,0.4-2.7,0.5-4.1,0.5c-1.8,0-3.5-0.3-5-0.8c-1.5-0.5-3-1.4-4.3-2.7l4.4-4.8
			c0.6,0.8,1.4,1.5,2.4,1.9c1,0.5,1.9,0.7,3,0.7c0.5,0,1-0.1,1.5-0.2c0.5-0.1,1-0.3,1.4-0.5c0.4-0.2,0.7-0.5,1-0.9
			c0.2-0.4,0.4-0.8,0.4-1.3c0-0.8-0.3-1.5-1-2c-0.6-0.5-1.4-0.9-2.4-1.2c-1-0.3-2-0.7-3.1-1c-1.1-0.3-2.2-0.8-3.1-1.4
			c-1-0.6-1.8-1.3-2.4-2.3c-0.6-0.9-1-2.2-1-3.7c0-1.5,0.3-2.8,0.9-3.9c0.6-1.1,1.4-2.1,2.4-2.8c1-0.8,2.1-1.3,3.4-1.7
			c1.3-0.4,2.6-0.6,4-0.6c1.6,0,3.1,0.2,4.6,0.7c1.5,0.4,2.8,1.2,4,2.2L71.4,24.6z"/>
		<path fill="#3D83E1" d="M90.4,43.2L90.4,43.2c-0.7,1-1.6,1.8-2.7,2.2c-1.1,0.4-2.2,0.7-3.4,0.7c-0.9,0-1.7-0.1-2.6-0.4
			c-0.8-0.2-1.6-0.6-2.2-1.1c-0.6-0.5-1.1-1.1-1.5-1.8c-0.4-0.7-0.5-1.6-0.5-2.6c0-1.1,0.2-2,0.6-2.8c0.4-0.8,1-1.4,1.6-1.9
			c0.7-0.5,1.5-0.9,2.4-1.2c0.9-0.3,1.8-0.5,2.8-0.6c1-0.1,1.9-0.2,2.9-0.2c1,0,1.8,0,2.6,0c0-1-0.4-1.9-1.1-2.5
			c-0.7-0.6-1.6-0.9-2.6-0.9c-1,0-1.9,0.2-2.6,0.6c-0.8,0.4-1.5,1-2.1,1.7l-3.1-3.2c1.1-1,2.4-1.8,3.8-2.3c1.5-0.5,3-0.8,4.6-0.8
			c1.7,0,3.1,0.2,4.3,0.6c1.1,0.4,2,1.1,2.7,1.9c0.7,0.8,1.1,1.9,1.4,3.1c0.3,1.2,0.4,2.6,0.4,4.2v9.7h-5.4V43.2z M89,37.2
			c-0.4,0-1,0-1.7,0.1c-0.7,0-1.3,0.2-1.9,0.3c-0.6,0.2-1.1,0.5-1.6,0.8c-0.4,0.4-0.6,0.9-0.6,1.5c0,0.7,0.3,1.2,0.9,1.6
			c0.6,0.3,1.2,0.5,1.9,0.5c0.6,0,1.1-0.1,1.7-0.2c0.5-0.2,1-0.4,1.4-0.7c0.4-0.3,0.8-0.7,1-1.1c0.2-0.4,0.4-1,0.4-1.6v-1.3H89z"/>
		<path fill="#3D83E1" d="M98.6,15.9h5.9v29.7h-5.9V15.9z"/>
		<path fill="#3D83E1" d="M125.8,42.3c-0.9,1.2-2.1,2.1-3.6,2.8c-1.4,0.7-2.9,1-4.5,1c-1.5,0-2.8-0.2-4.1-0.7
			c-1.3-0.5-2.4-1.1-3.4-2c-1-0.9-1.7-1.9-2.3-3.2c-0.5-1.2-0.8-2.6-0.8-4.1c0-1.5,0.3-2.9,0.8-4.1c0.5-1.2,1.3-2.3,2.3-3.2
			c1-0.9,2.1-1.6,3.4-2c1.3-0.5,2.7-0.7,4.1-0.7c1.4,0,2.6,0.2,3.7,0.7c1.1,0.5,2.1,1.1,2.8,2c0.8,0.9,1.4,1.9,1.8,3.2
			c0.4,1.2,0.6,2.6,0.6,4.1v1.8h-13.7c0.2,1.1,0.7,2,1.5,2.7c0.8,0.7,1.8,1,2.9,1c1,0,1.8-0.2,2.5-0.6c0.7-0.4,1.2-1,1.7-1.7
			L125.8,42.3z M120.8,33.9c0-1-0.3-1.8-1-2.6c-0.7-0.7-1.6-1.1-2.6-1.1c-0.7,0-1.2,0.1-1.7,0.3c-0.5,0.2-0.9,0.5-1.3,0.8
			c-0.4,0.3-0.6,0.7-0.8,1.1c-0.2,0.4-0.3,0.9-0.3,1.4H120.8z"/>
		<path fill="#3D83E1" d="M140.1,32.1c-0.9-1.1-2-1.6-3.4-1.6c-0.5,0-1,0.1-1.5,0.4c-0.5,0.2-0.7,0.6-0.7,1.2c0,0.5,0.2,0.8,0.7,1
			c0.5,0.2,1.1,0.4,1.8,0.6c0.7,0.2,1.5,0.4,2.4,0.5c0.9,0.2,1.6,0.5,2.4,0.9c0.7,0.4,1.4,1,1.8,1.7c0.5,0.7,0.7,1.7,0.7,2.9
			c0,1.2-0.3,2.2-0.8,3c-0.5,0.8-1.2,1.4-2.1,1.9c-0.8,0.5-1.8,0.8-2.8,1c-1,0.2-2.1,0.3-3.1,0.3c-1.3,0-2.7-0.2-4-0.6
			c-1.4-0.4-2.5-1.1-3.5-2l3.6-4c0.5,0.7,1.2,1.2,1.8,1.6c0.7,0.4,1.4,0.5,2.3,0.5c0.7,0,1.3-0.1,1.8-0.3s0.8-0.6,0.8-1.1
			c0-0.5-0.2-0.9-0.7-1.1c-0.5-0.2-1.1-0.5-1.8-0.6c-0.7-0.2-1.5-0.4-2.4-0.5c-0.9-0.2-1.6-0.5-2.4-0.9c-0.7-0.4-1.4-0.9-1.8-1.7
			c-0.5-0.7-0.7-1.7-0.7-2.9c0-1.1,0.2-2.1,0.7-2.9c0.5-0.8,1.1-1.5,1.8-2c0.7-0.5,1.6-0.9,2.6-1.2c1-0.2,1.9-0.4,2.9-0.4
			c1.3,0,2.5,0.2,3.8,0.5c1.3,0.4,2.4,1,3.3,2L140.1,32.1z"/>
		<path fill="#3D83E1" d="M147.9,17.8h3.3v24.7h12.7v3.1h-16V17.8z"/>
		<path fill="#3D83E1" d="M164.9,36.4c0-1.4,0.2-2.7,0.7-3.9c0.5-1.2,1.2-2.2,2-3c0.9-0.8,1.9-1.5,3.1-2c1.2-0.5,2.5-0.7,3.9-0.7
			s2.7,0.2,3.9,0.7c1.2,0.5,2.2,1.1,3.1,2c0.9,0.9,1.5,1.9,2,3c0.5,1.2,0.7,2.5,0.7,3.9c0,1.4-0.2,2.7-0.7,3.9c-0.5,1.2-1.2,2.2-2,3
			c-0.9,0.9-1.9,1.5-3.1,2c-1.2,0.5-2.5,0.7-3.9,0.7s-2.7-0.2-3.9-0.7c-1.2-0.5-2.2-1.1-3.1-2c-0.9-0.8-1.5-1.9-2-3
			C165.1,39.2,164.9,37.8,164.9,36.4z M168.2,36.4c0,1,0.2,1.9,0.5,2.7c0.3,0.8,0.7,1.5,1.3,2.2c0.6,0.6,1.3,1.1,2.1,1.5
			c0.8,0.4,1.7,0.5,2.7,0.5c1,0,1.9-0.2,2.7-0.5c0.8-0.4,1.5-0.8,2.1-1.5c0.6-0.6,1-1.3,1.3-2.2c0.3-0.8,0.5-1.7,0.5-2.7
			c0-1-0.2-1.9-0.5-2.7c-0.3-0.8-0.7-1.5-1.3-2.2c-0.6-0.6-1.3-1.1-2.1-1.5c-0.8-0.4-1.7-0.5-2.7-0.5c-1,0-1.9,0.2-2.7,0.5
			c-0.8,0.4-1.5,0.8-2.1,1.5c-0.6,0.6-1,1.3-1.3,2.2C168.3,34.5,168.2,35.4,168.2,36.4z"/>
		<path fill="#3D83E1" d="M189.9,29.8h-4v-2.6h4v-4.1c0-1.1,0.1-2.2,0.3-3.1c0.2-0.9,0.6-1.7,1.1-2.4c0.5-0.7,1.2-1.2,2-1.6
			c0.8-0.4,1.9-0.6,3.1-0.6c0.4,0,0.8,0,1.3,0.1c0.4,0.1,0.8,0.2,1.1,0.4l-0.4,2.7c-0.7-0.3-1.4-0.4-2.1-0.4c-0.8,0-1.4,0.1-1.8,0.4
			c-0.4,0.3-0.8,0.7-1,1.1c-0.2,0.5-0.4,1.1-0.4,1.7c0,0.7-0.1,1.4-0.1,2.2v3.5h4.5v2.6h-4.5v15.8h-3.1V29.8z"/>
		<path fill="#3D83E1" d="M209.7,29.8h-5.4V39c0,0.6,0,1.2,0,1.7c0,0.5,0.1,1,0.3,1.3c0.2,0.4,0.5,0.7,0.8,0.9
			c0.4,0.2,0.9,0.3,1.6,0.3c0.4,0,0.9-0.1,1.4-0.2c0.5-0.1,0.9-0.3,1.3-0.5l0.1,2.8c-0.5,0.2-1.1,0.4-1.7,0.5
			c-0.6,0.1-1.2,0.2-1.8,0.2c-1.1,0-2-0.1-2.6-0.4c-0.7-0.3-1.2-0.7-1.5-1.2c-0.4-0.5-0.6-1.2-0.7-1.9c-0.1-0.8-0.2-1.6-0.2-2.6
			V29.8h-4v-2.6h4V22h3.1v5.2h5.4V29.8z"/>
	</g>
</g>
</svg>
